<svg xmlns="http://www.w3.org/2000/svg" width="375" viewBox="0 0 375 375" height="375" version="1.0"><g><g><g><path d="M 260.597656 -111.085938 L 136.9375 -111.085938 L 136.9375 -89.777344 L 233.351562 -89.777344 C 226.015625 -69.167969 213.789062 -52.398438 196.320312 -40.171875 C 178.855469 -27.597656 159.292969 -21.660156 137.984375 -21.660156 C 110.738281 -21.660156 87.679688 -31.089844 68.46875 -50.304688 C 49.605469 -69.515625 40.171875 -92.921875 40.171875 -119.820312 C 40.171875 -146.71875 49.605469 -169.773438 68.816406 -188.984375 C 87.679688 -207.851562 110.738281 -217.632812 137.984375 -217.632812 C 158.246094 -217.632812 176.757812 -211.691406 193.179688 -200.164062 C 209.945312 -188.636719 221.824219 -173.617188 229.507812 -154.402344 L 255.359375 -154.402344 C 247.324219 -180.601562 232.304688 -201.5625 210.644531 -217.632812 C 188.984375 -233.699219 163.835938 -242.082031 135.539062 -242.082031 C 120.167969 -242.082031 105.148438 -238.589844 90.476562 -232.304688 C 75.453125 -226.015625 62.53125 -217.28125 51.351562 -206.101562 C 40.171875 -194.925781 31.441406 -182 25.152344 -167.328125 C 18.863281 -152.308594 15.71875 -136.238281 15.71875 -119.46875 C 15.71875 -102.703125 18.863281 -86.632812 25.152344 -71.960938 C 31.441406 -56.941406 40.171875 -44.015625 51.351562 -32.835938 C 62.53125 -21.660156 75.453125 -12.925781 90.476562 -6.636719 C 105.148438 -0.347656 121.214844 2.792969 137.984375 2.792969 C 166.628906 2.792969 192.480469 -6.289062 215.535156 -24.800781 C 238.589844 -43.664062 252.914062 -67.421875 258.152344 -96.414062 Z M 260.597656 -111.085938" transform="translate(20.357 358.603)"/></g></g></g><g><g><g><path d="M 76.46875 -103.335938 L 127.722656 -232.714844 L 178.566406 -103.335938 Z M 250.902344 0 L 127.722656 -300.503906 L 4.132812 0 L 35.546875 0 L 65.722656 -76.46875 L 189.3125 -76.46875 L 219.488281 0 Z M 250.902344 0" transform="translate(112.43 311.305)"/></g></g></g></svg>